<svg width="12" height="13" viewBox="0 0 12 13" fill="none" xmlns="http://www.w3.org/2000/svg">
<path d="M11.925 5.62644C11.8774 5.50364 11.806 5.39144 11.7149 5.2963L6.7128 0.294214C6.61952 0.200937 6.50879 0.126945 6.38691 0.0764641C6.26504 0.0259827 6.13442 0 6.0025 0C5.73609 0 5.48059 0.105832 5.29221 0.294214C5.19893 0.387492 5.12494 0.498228 5.07446 0.620101C5.02398 0.741974 4.99799 0.872596 4.99799 1.00451C4.99799 1.27092 5.10382 1.52642 5.29221 1.71481L8.59358 5.00618H1.00042C0.73509 5.00618 0.48063 5.11158 0.293016 5.2992C0.105401 5.48681 0 5.74127 0 6.0066C0 6.27192 0.105401 6.52638 0.293016 6.714C0.48063 6.90161 0.73509 7.00701 1.00042 7.00701H8.59358L5.29221 10.2984C5.19844 10.3914 5.12401 10.502 5.07322 10.6239C5.02243 10.7459 4.99629 10.8766 4.99629 11.0087C4.99629 11.1407 5.02243 11.2715 5.07322 11.3934C5.12401 11.5153 5.19844 11.626 5.29221 11.719C5.38521 11.8127 5.49586 11.8872 5.61777 11.938C5.73968 11.9888 5.87044 12.0149 6.0025 12.0149C6.13457 12.0149 6.26533 11.9888 6.38724 11.938C6.50915 11.8872 6.6198 11.8127 6.7128 11.719L11.7149 6.71689C11.806 6.62175 11.8774 6.50956 11.925 6.38676C12.025 6.14319 12.025 5.87 11.925 5.62644Z" fill="black"/>
</svg>
