<svg width="300" height="101" viewBox="0 0 300 101" fill="none" xmlns="http://www.w3.org/2000/svg">
    <path fill-rule="evenodd" clip-rule="evenodd" d="M296.019 57.7576C293.648 57.7576 292.038 55.9793 292.038 53.7775V3.98015C292.038 1.77771 293.648 0 296.019 0C298.391 0 300 1.77771 300 3.98015V53.7775C300 55.9793 298.391 57.7576 296.019 57.7576ZM269.088 25.6606C263.244 25.6606 259.264 29.8102 258.502 35.0616H279.335C278.658 29.9796 274.846 25.6606 269.088 25.6606ZM286.702 38.787C286.702 40.1418 285.941 41.4977 283.655 41.4977H258.333C258.756 47.3415 262.736 51.7446 269.765 51.7446C274.17 51.7446 276.795 50.2204 279.589 47.5956C280.267 46.9179 281.198 46.3244 282.215 46.3244C283.993 46.3244 285.518 47.5956 285.518 49.6275C285.518 50.4746 285.094 51.2363 284.502 51.914C281.283 55.6406 275.525 58.096 269.427 58.096C256.807 58.096 250.117 49.2886 250.117 38.7023C250.117 27.6083 258.163 19.3092 269.088 19.3092C279.759 19.3092 286.702 27.9466 286.702 38.787ZM245.29 37.0091C245.29 27.1004 237.753 19.309 227.506 19.309C217.258 19.309 209.805 27.1004 209.805 37.0091V53.7774C209.805 55.9792 211.585 57.7576 213.786 57.7576C215.987 57.7576 217.767 55.9792 217.767 53.7774V36.0773C217.767 30.7418 221.917 26.5922 227.506 26.5922C233.094 26.5922 237.329 30.7418 237.329 36.0773V53.7774C237.329 55.9792 239.108 57.7576 241.31 57.7576C243.512 57.7576 245.29 55.9792 245.29 53.7774V37.0091ZM184.06 26.0836C177.285 26.0836 172.542 31.7585 172.542 38.7023C172.542 45.9855 176.523 51.3217 184.06 51.3217C191.089 51.3217 195.578 45.3085 195.578 38.7023C195.578 30.9114 190.834 26.0836 184.06 26.0836ZM203.538 53.7776C203.538 55.9789 202.014 57.7578 199.558 57.7578C197.186 57.7578 195.662 55.9789 195.662 53.7776V51.914C193.292 55.4712 188.803 58.096 183.298 58.096C171.441 58.096 164.582 49.4586 164.582 38.7023C164.582 28.116 172.204 19.3092 184.145 19.3092C196.34 19.3092 203.538 27.2695 203.538 38.7023V53.7776ZM130.79 38.7028C130.79 31.9272 135.363 25.9146 142.223 25.9146C149.083 25.9146 153.572 31.0807 153.572 38.7028C153.572 46.3243 149.083 51.4904 142.223 51.4904C135.363 51.4904 130.79 45.4778 130.79 38.7028ZM130.79 50.8127C133.5 55.1329 138.158 58.0959 143.833 58.0959C153.572 58.0959 161.533 50.3897 161.533 38.7028C161.533 27.4388 153.572 19.3091 143.833 19.3091C138.158 19.3091 133.077 22.188 130.536 26.5923V23.7128C130.536 21.5103 129.097 19.6473 126.64 19.6473C124.184 19.6473 122.829 21.4262 122.829 23.6281V69.6141C122.829 71.8165 124.439 73.5948 126.81 73.5948C129.181 73.5948 130.79 71.8165 130.79 69.6141V50.8127ZM100.387 33.3668L110.465 20.8328C111.142 20.071 111.989 19.6474 113.09 19.6474C115.292 19.6474 116.731 21.0869 116.731 23.1193C116.731 23.8823 116.477 24.6441 115.8 25.4065L104.706 38.6182L115.97 51.914C116.562 52.5917 116.901 53.2694 116.901 54.2853C116.901 56.233 115.207 57.7578 113.344 57.7578C112.158 57.7578 111.227 57.3342 110.549 56.4871L100.387 43.8684L90.2239 56.4871C89.5462 57.3342 88.615 57.7578 87.4291 57.7578C85.5661 57.7578 83.8719 56.233 83.8719 54.2853C83.8719 53.2694 84.2107 52.5917 84.8037 51.914L96.0671 38.6182L84.9731 25.4065C84.2954 24.6441 84.0419 23.8823 84.0419 23.1193C84.0419 21.0869 85.4814 19.6474 87.6832 19.6474C88.7838 19.6474 89.6309 20.071 90.3086 20.8328L100.387 33.3668ZM69.9843 53.7775C69.9843 55.9793 71.5932 57.7576 73.9644 57.7576C76.3357 57.7576 77.9446 55.9793 77.9446 53.7775V23.628C77.9446 21.4262 76.251 19.6473 73.9644 19.6473C71.6779 19.6473 69.9843 21.4262 69.9843 23.628V53.7775ZM78.6223 9.23036C78.6223 6.69027 76.5051 4.57253 73.9644 4.57253C71.4237 4.57253 69.3066 6.69027 69.3066 9.23036C69.3066 11.7717 71.4237 13.8888 73.9644 13.8888C76.5051 13.8888 78.6223 11.7717 78.6223 9.23036ZM58.805 57.7576C56.5184 57.7576 54.8248 55.9793 54.8248 53.7775V36.8397C54.8248 30.9959 52.03 26.5069 45.7627 26.5069C39.496 26.5069 35.6847 31.3348 35.6847 36.9238V53.7775C35.6847 55.9793 34.1605 57.7576 31.7045 57.7576C29.3332 57.7576 27.7237 55.9793 27.7237 53.7775V36.8397C27.7237 30.9959 24.6748 26.5069 18.4081 26.5069C11.9713 26.5069 8.58356 31.3348 8.58356 36.9238V53.7775C8.58356 55.9793 6.97467 57.7576 4.60402 57.7576C2.31686 57.7576 0.623269 55.9793 0.623269 53.7775V23.7127C0.623269 21.3408 2.14744 19.6473 4.60402 19.6473C7.31411 19.6473 8.58356 21.5103 8.58356 23.7127V26.4228C10.8707 21.9338 15.5286 19.309 20.5252 19.309C26.6231 19.309 31.1962 22.3574 33.4828 26.8464C36.7859 21.7644 41.6131 19.309 47.6257 19.309C57.8732 19.309 62.7852 26.3381 62.7852 36.2468V53.7775C62.7852 55.9793 61.1763 57.7576 58.805 57.7576ZM13.2859 100.794C20.4958 100.668 26.2393 94.7209 26.1134 87.5099C25.9876 80.2988 20.04 74.5559 12.8295 74.6817C5.61971 74.8076 -0.123841 80.7546 0.00202997 87.9656C0.127901 95.1773 6.07484 100.92 13.2859 100.794ZM68.3515 87.6012C68.4267 91.9273 64.9811 95.4952 60.6549 95.571C56.3287 95.6462 52.7601 92.2011 52.6844 87.8744C52.6086 83.5476 56.0549 79.9797 60.3811 79.9045C64.7078 79.8287 68.2758 83.2744 68.3515 87.6012ZM100.708 92.4379C103.304 92.392 105.371 90.2522 105.326 87.6554C105.281 85.0593 103.14 82.9928 100.544 83.0376C97.948 83.0829 95.8809 85.2239 95.9263 87.8195C95.971 90.4157 98.1126 92.4833 100.708 92.4379Z" fill="white"/>
</svg>
