<svg width="12" height="13" viewBox="0 0 12 13" fill="none" xmlns="http://www.w3.org/2000/svg">
<path d="M0.075042 6.38845C0.122656 6.51125 0.194052 6.62345 0.28513 6.71859L5.28721 11.7207C5.38049 11.8139 5.49122 11.8879 5.61309 11.9384C5.73497 11.9889 5.86559 12.0149 5.9975 12.0149C6.26392 12.0149 6.51942 11.9091 6.7078 11.7207C6.80108 11.6274 6.87507 11.5167 6.92555 11.3948C6.97603 11.2729 7.00201 11.1423 7.00201 11.0104C7.00201 10.744 6.89618 10.4885 6.7078 10.3001L3.40643 7.00871L10.9996 7.00871C11.2649 7.00871 11.5194 6.90331 11.707 6.71569C11.8946 6.52808 12 6.27362 12 6.00829C12 5.74297 11.8946 5.48851 11.707 5.30089C11.5194 5.11328 11.2649 5.00788 10.9996 5.00788L3.40643 5.00788L6.7078 1.71651C6.80157 1.62351 6.87599 1.51286 6.92678 1.39095C6.97757 1.26904 7.00372 1.13828 7.00372 1.00621C7.00372 0.874148 6.97757 0.743388 6.92678 0.621478C6.87599 0.499567 6.80157 0.388922 6.7078 0.29592C6.6148 0.202153 6.50415 0.127726 6.38224 0.0769358C6.26033 0.0261458 6.12957 -2.42135e-06 5.99751 -2.4329e-06C5.86544 -2.44444e-06 5.73468 0.0261458 5.61277 0.0769357C5.49086 0.127726 5.38021 0.202153 5.28721 0.29592L0.28513 5.298C0.194052 5.39314 0.122656 5.50533 0.0750421 5.62813C-0.0250171 5.8717 -0.0250171 6.14489 0.075042 6.38845Z" fill="white"/>
</svg>
